<?xml version="1.0" encoding="UTF-8"?>
<svg width="3240" height="400" viewBox="0 0 324 40" xmlns="http://www.w3.org/2000/svg" xmlns:xlink="http://www.w3.org/1999/xlink" xml:space="preserve" version="1.1"  baseProfile="full">
  <defs>
    <linearGradient id="headerGradient" x1="0" y1="0" x2="324" y2="0" gradientUnits="userSpaceOnUse">
      <stop offset="0%" stop-color="#BD93F9"/>
      <stop offset="35%" stop-color="#FF79C6"/>
      <stop offset="70%" stop-color="#8BE9FD"/>
      <stop offset="100%" stop-color="#50FA7B"/>
    </linearGradient>
  </defs>
 <g id="mainlayer" font-size="10" style="font-family: monospace">
<text style="fill:url(#headerGradient)" x="6" y="8">_</text>
<text style="fill:url(#headerGradient)" x="12" y="8">_</text>
<text style="fill:url(#headerGradient)" x="18" y="8">_</text>
<text style="fill:url(#headerGradient)" x="24" y="8">_</text>
<text style="fill:url(#headerGradient)" x="30" y="8">_</text>
<text style="fill:url(#headerGradient)" x="36" y="8">_</text>
<text style="fill:url(#headerGradient)" x="42" y="8">_</text>
<text style="fill:url(#headerGradient)" x="54" y="8">_</text>
<text style="fill:url(#headerGradient)" x="60" y="8">_</text>
<text style="fill:url(#headerGradient)" x="66" y="8">_</text>
<text style="fill:url(#headerGradient)" x="72" y="8">_</text>
<text style="fill:url(#headerGradient)" x="78" y="8">_</text>
<text style="fill:url(#headerGradient)" x="84" y="8">_</text>
<text style="fill:url(#headerGradient)" x="90" y="8">_</text>
<text style="fill:url(#headerGradient)" x="102" y="8">_</text>
<text style="fill:url(#headerGradient)" x="108" y="8">_</text>
<text style="fill:url(#headerGradient)" x="114" y="8">_</text>
<text style="fill:url(#headerGradient)" x="120" y="8">_</text>
<text style="fill:url(#headerGradient)" x="126" y="8">_</text>
<text style="fill:url(#headerGradient)" x="138" y="8">_</text>
<text style="fill:url(#headerGradient)" x="144" y="8">_</text>
<text style="fill:url(#headerGradient)" x="150" y="8">_</text>
<text style="fill:url(#headerGradient)" x="156" y="8">_</text>
<text style="fill:url(#headerGradient)" x="162" y="8">_</text>
<text style="fill:url(#headerGradient)" x="168" y="8">_</text>
<text style="fill:url(#headerGradient)" x="174" y="8">_</text>
<text style="fill:url(#headerGradient)" x="186" y="8">_</text>
<text style="fill:url(#headerGradient)" x="192" y="8">_</text>
<text style="fill:url(#headerGradient)" x="198" y="8">_</text>
<text style="fill:url(#headerGradient)" x="204" y="8">_</text>
<text style="fill:url(#headerGradient)" x="210" y="8">_</text>
<text style="fill:url(#headerGradient)" x="216" y="8">_</text>
<text style="fill:url(#headerGradient)" x="222" y="8">_</text>
<text style="fill:url(#headerGradient)" x="234" y="8">_</text>
<text style="fill:url(#headerGradient)" x="270" y="8">_</text>
<text style="fill:url(#headerGradient)" x="288" y="8">_</text>
<text style="fill:url(#headerGradient)" x="294" y="8">_</text>
<text style="fill:url(#headerGradient)" x="300" y="8">_</text>
<text style="fill:url(#headerGradient)" x="306" y="8">_</text>
<text style="fill:url(#headerGradient)" x="312" y="8">_</text>
<text style="fill:url(#headerGradient)" x="318" y="8">_</text>
<text style="fill:url(#headerGradient)" x="6" y="18">|</text>
<text style="fill:url(#headerGradient)" x="12" y="18">_</text>
<text style="fill:url(#headerGradient)" x="18" y="18">_</text>
<text style="fill:url(#headerGradient)" x="24" y="18">_</text>
<text style="fill:url(#headerGradient)" x="30" y="18">_</text>
<text style="fill:url(#headerGradient)" x="36" y="18">_</text>
<text style="fill:url(#headerGradient)" x="42" y="18">_</text>
<text style="fill:url(#headerGradient)" x="72" y="18">|</text>
<text style="fill:url(#headerGradient)" x="114" y="18">|</text>
<text style="fill:url(#headerGradient)" x="156" y="18">|</text>
<text style="fill:url(#headerGradient)" x="186" y="18">|</text>
<text style="fill:url(#headerGradient)" x="234" y="18">|</text>
<text style="fill:url(#headerGradient)" x="240" y="18">_</text>
<text style="fill:url(#headerGradient)" x="246" y="18">_</text>
<text style="fill:url(#headerGradient)" x="252" y="18">_</text>
<text style="fill:url(#headerGradient)" x="258" y="18">_</text>
<text style="fill:url(#headerGradient)" x="264" y="18">_</text>
<text style="fill:url(#headerGradient)" x="270" y="18">|</text>
<text style="fill:url(#headerGradient)" x="282" y="18">|</text>
<text style="fill:url(#headerGradient)" x="288" y="18">_</text>
<text style="fill:url(#headerGradient)" x="294" y="18">_</text>
<text style="fill:url(#headerGradient)" x="300" y="18">_</text>
<text style="fill:url(#headerGradient)" x="306" y="18">_</text>
<text style="fill:url(#headerGradient)" x="312" y="18">_</text>
<text style="fill:url(#headerGradient)" x="318" y="18">/</text>
<text style="fill:url(#headerGradient)" x="6" y="28">_</text>
<text style="fill:url(#headerGradient)" x="12" y="28">_</text>
<text style="fill:url(#headerGradient)" x="18" y="28">_</text>
<text style="fill:url(#headerGradient)" x="24" y="28">_</text>
<text style="fill:url(#headerGradient)" x="30" y="28">_</text>
<text style="fill:url(#headerGradient)" x="36" y="28">_</text>
<text style="fill:url(#headerGradient)" x="42" y="28">|</text>
<text style="fill:url(#headerGradient)" x="72" y="28">|</text>
<text style="fill:url(#headerGradient)" x="102" y="28">_</text>
<text style="fill:url(#headerGradient)" x="108" y="28">_</text>
<text style="fill:url(#headerGradient)" x="114" y="28">|</text>
<text style="fill:url(#headerGradient)" x="120" y="28">_</text>
<text style="fill:url(#headerGradient)" x="126" y="28">_</text>
<text style="fill:url(#headerGradient)" x="156" y="28">|</text>
<text style="fill:url(#headerGradient)" x="186" y="28">|</text>
<text style="fill:url(#headerGradient)" x="192" y="28">_</text>
<text style="fill:url(#headerGradient)" x="198" y="28">_</text>
<text style="fill:url(#headerGradient)" x="204" y="28">_</text>
<text style="fill:url(#headerGradient)" x="210" y="28">_</text>
<text style="fill:url(#headerGradient)" x="216" y="28">_</text>
<text style="fill:url(#headerGradient)" x="234" y="28">|</text>
<text style="fill:url(#headerGradient)" x="270" y="28">|</text>
<text style="fill:url(#headerGradient)" x="282" y="28">|</text>
<text style="fill:url(#headerGradient)" x="312" y="28">\</text>
<text style="fill:url(#headerGradient)" x="318" y="28">_</text>
 </g>
</svg>
